<?xml version="1.0" encoding="UTF-8"?><svg id="Layer_1" xmlns="http://www.w3.org/2000/svg" viewBox="0 0 800 800"><defs><style>.cls-1{fill:#8a8a8a;fill-rule:evenodd;stroke-width:0px;}</style></defs><path class="cls-1" d="M358.33,601.49c.01,14.43.01,27.66-1.44,38.42-1.59,11.85-5.34,24.37-15.64,34.67s-22.83,14.05-34.68,15.64c-10.76,1.45-23.98,1.45-38.41,1.45h-69.65c-14.43,0-27.66,0-38.42-1.45-11.85-1.59-24.37-5.34-34.67-15.64s-14.05-22.82-15.64-34.67c-1.45-10.76-1.45-23.99-1.45-38.42v-2.98c0-14.43,0-27.66,1.45-38.42,1.59-11.85,5.34-24.37,15.64-34.67s22.82-14.05,34.67-15.64c10.76-1.45,23.99-1.45,38.42-1.45h69.65c14.43,0,27.65,0,38.41,1.45,11.85,1.59,24.38,5.34,34.68,15.64s14.05,22.82,15.64,34.67c1.45,10.76,1.45,23.99,1.44,38.42v2.98Z"/><path class="cls-1" d="M691.67,465.18v136.31c0,14.43,0,27.66-1.45,38.42-1.59,11.85-5.34,24.37-15.64,34.67s-22.82,14.05-34.67,15.64c-10.76,1.45-23.99,1.45-38.42,1.45h-69.65c-14.43,0-27.65,0-38.41-1.45-11.85-1.59-24.38-5.34-34.68-15.64s-14.05-22.82-15.64-34.67c-1.45-10.76-1.45-23.99-1.44-38.42v-136.31c-.01-14.43-.01-27.66,1.44-38.42,1.59-11.85,5.34-24.37,15.64-34.67,10.3-10.31,22.83-14.05,34.68-15.65,10.76-1.44,23.98-1.44,38.41-1.44h69.65c14.43,0,27.66,0,38.42,1.44,11.85,1.6,24.37,5.34,34.67,15.65,10.3,10.3,14.05,22.82,15.64,34.67,1.45,10.76,1.45,23.99,1.45,38.42Z"/><path class="cls-1" d="M691.67,198.51v2.98c0,14.43,0,27.66-1.45,38.42-1.59,11.85-5.34,24.37-15.64,34.67s-22.82,14.05-34.67,15.64c-10.76,1.45-23.99,1.45-38.42,1.45h-69.65c-14.43,0-27.65,0-38.41-1.45-11.85-1.59-24.38-5.34-34.68-15.64s-14.05-22.82-15.64-34.67c-1.45-10.76-1.45-23.99-1.44-38.42v-2.98c-.01-14.43-.01-27.66,1.44-38.42,1.59-11.85,5.34-24.37,15.64-34.67s22.83-14.05,34.68-15.64c10.76-1.45,23.98-1.45,38.41-1.45h69.65c14.43,0,27.66,0,38.42,1.45,11.85,1.59,24.37,5.34,34.67,15.64s14.05,22.82,15.64,34.67c1.45,10.76,1.45,23.99,1.45,38.42Z"/><path class="cls-1" d="M358.33,334.83c.01,14.42.01,27.65-1.44,38.41-1.59,11.85-5.34,24.37-15.64,34.67-10.3,10.31-22.83,14.05-34.68,15.65-10.76,1.44-23.98,1.44-38.41,1.44h-69.65c-14.43,0-27.66,0-38.42-1.44-11.85-1.6-24.37-5.34-34.67-15.65-10.3-10.3-14.05-22.82-15.64-34.67-1.45-10.76-1.45-23.99-1.45-38.41v-136.32c0-14.43,0-27.66,1.45-38.42,1.59-11.85,5.34-24.37,15.64-34.67s22.82-14.05,34.67-15.64c10.76-1.45,23.99-1.45,38.42-1.45h69.65c14.43,0,27.65,0,38.41,1.45,11.85,1.59,24.38,5.34,34.68,15.64s14.05,22.82,15.64,34.67c1.45,10.76,1.45,23.99,1.44,38.42v136.32Z"/></svg>