<?xml version="1.0" encoding="UTF-8"?><svg id="Layer_1" xmlns="http://www.w3.org/2000/svg" viewBox="0 0 800 800"><defs><style>.cls-1{fill:#000;stroke-width:0px;}</style></defs><path class="cls-1" d="M592.86,687.91H209.34c-2.68-.35-5.35-.77-8.04-1.04-17.84-1.79-34.06-7.97-48.32-18.71-23.75-17.89-37.16-41.77-39.95-71.49-.17-1.84-.64-3.65-.98-5.47,0-127.27,0-254.53,0-381.8.18-.9.42-1.8.54-2.71.61-4.64.98-9.32,1.82-13.92,2.75-15.09,8.83-28.78,18.03-41.05,10.33-13.78,23.43-24.12,39.16-31.15,11.87-5.31,24.3-8.35,37.29-8.38,48.26-.11,96.52-.06,144.78-.07,2.34,0,4.7-.14,7.02.08,5.68.53,11.46.72,16.99,1.95,28.75,6.4,51.01,22.06,65.7,47.72,10.19,17.8,19.76,35.96,29.6,53.96.45.82.97,1.61,1.33,2.47.59,1.44,1.61,1.94,3.11,1.76.74-.09,1.5-.01,2.25-.01,37.67.01,75.34-.03,113.02.1,4.84.02,9.74.57,14.51,1.46,19.8,3.67,37.02,12.55,51.29,26.75,18.91,18.82,28.94,41.59,29.41,68.4.02,1.22.02,2.44.02,3.65,0,89.02-.02,178.03.03,267.05,0,10.39-1.22,20.54-4.33,30.46-11.97,38.18-45.12,65.12-84.97,69.05-1.94.19-3.85.62-5.78.94ZM166.58,273.9c0,1.79,0,3.09,0,4.39,0,102.23,0,204.47-.01,306.7,0,1.59-.06,3.19.03,4.78.97,17.79,9.39,30.86,25.11,39.15,6.85,3.61,14.29,4.67,22.03,4.67,124.46-.06,248.91-.04,373.37-.04,1.41,0,2.82.03,4.22-.06,17.23-1.14,29.85-9.51,38.02-24.6,3.75-6.92,4.94-14.45,4.94-22.26-.03-88.46-.02-176.92-.02-265.38,0-.56,0-1.12,0-1.69-.11-14-5.27-25.74-15.9-34.91-8.75-7.55-19.03-10.78-30.56-10.77-139.26.05-278.53.03-417.79.03h-3.43ZM166.77,219.86h246.76c-.25-.66-.36-1.1-.57-1.49-5.57-10.19-11.1-20.41-16.74-30.56-2.34-4.21-5.47-7.83-9.16-10.94-8.73-7.34-18.75-10.95-30.23-10.93-47.98.08-95.96.03-143.94.04-1.31,0-2.63.02-3.93.11-15.28,1.04-27.05,8.12-35.41,20.83-6.54,9.95-7.7,21.11-6.78,32.94Z"/></svg>