<?xml version="1.0" encoding="UTF-8"?><svg id="Layer_1" xmlns="http://www.w3.org/2000/svg" viewBox="0 0 800 800"><defs><style>.cls-1{fill:#edb248;stroke-width:0px;}</style></defs><path class="cls-1" d="M721.18,618.03c-9.58-66.8-44.56-115.77-103.98-145.54-26.17-13.11-55.56-22.24-91.85-28.48,33.12-29.09,53.74-65.59,61.43-108.9,9.99-56.25-2.87-107.44-38.23-152.14-31.59-39.95-76.89-65.11-127.56-70.85-50.61-5.73-100.33,8.64-139.99,40.46-42.68,34.24-66.46,78.34-70.67,131.07-5.16,64.5,16.23,118.29,63.63,160.33-33.53,5.74-60.99,13.92-85.75,25.49-42.28,19.76-73.13,48.99-91.69,86.88-14.49,29.58-21.52,63.39-21.48,103.35.01,7.81,2.97,15.05,8.35,20.39,5.34,5.29,12.47,8.17,20.12,8.13,15.23-.09,27.07-11.93,28.16-28.15.18-2.57.34-5.15.5-7.73.73-11.64,1.41-22.65,3.26-33.39,6.02-35.02,22.04-61.73,48.95-81.67,17.03-12.61,36.95-21.9,62.7-29.23,27.43-7.81,58.22-12.6,94.14-14.64,65.99-3.74,119.84-1.94,169.47,5.65,30.94,4.73,56.88,12.33,79.31,23.23,36.42,17.69,59.34,44,70.08,80.44,4.91,16.63,7.35,35.16,7.49,56.64.07,10.63,4.92,19.4,13.65,24.7,4.58,2.78,9.73,4.18,14.85,4.18,4.84,0,9.66-1.25,13.97-3.75,9.09-5.28,14.35-14.9,14.06-25.73-.34-13-.94-26.93-2.92-40.74ZM493.95,395.9c-25.27,25.22-58.72,39.1-94.22,39.09h-.29c-73.63-.15-133.51-60.24-133.48-133.95.03-73.53,59.98-133.35,133.65-133.35,35.67,0,69.22,13.92,94.48,39.19,25.25,25.26,39.16,58.83,39.16,94.5v.04c0,35.64-13.96,69.19-39.3,94.48Z"/></svg>